<?xml version="1.0" encoding="utf-8"?>
<!-- Generator: Adobe Illustrator 16.0.0, SVG Export Plug-In . SVG Version: 6.00 Build 0)  -->
<!DOCTYPE svg PUBLIC "-//W3C//DTD SVG 1.1//EN" "http://www.w3.org/Graphics/SVG/1.1/DTD/svg11.dtd">
<svg version="1.1" id="Layer_1" xmlns="http://www.w3.org/2000/svg" xmlns:xlink="http://www.w3.org/1999/xlink" x="0px" y="0px"
	 width="792px" height="612px" viewBox="0 0 792 612" enable-background="new 0 0 792 612" xml:space="preserve">
<g>
	<path fill-rule="evenodd" clip-rule="evenodd" fill="#FFFFFF" d="M546.029,565.816c-117.334,0-234.667,0-352,0
		c0-10.617,0-21.234,0-32.021c-10.795,0-21.246,0-31.847,0c0-149.377,0-298.582,0-447.978c10.456,0,20.76,0,31.063-0.007
		c0.146,0,0.305-0.073,0.433-0.153c0.139-0.086,0.248-0.219,0.351-0.313c0-10.533,0-21.03,0-31.526c96,0,192,0,288,0
		c0,10.615,0,21.229,0,32c10.646,0,20.953-0.002,31.258,0.008c0.143,0,0.301,0.091,0.42,0.181c0.127,0.095,0.217,0.239,0.512,0.582
		c0,10.224,0,20.668,0,31.278c10.635,0,21.084,0,31.877,0c0,10.734,0,21.305,0,32.036c10.795,0,21.244,0,31.775,0
		c0,128.024,0,255.877,0,383.915c-10.461,0-20.764-0.002-31.066,0.006c-0.145,0-0.307,0.074-0.43,0.158
		c-0.135,0.092-0.232,0.232-0.346,0.352C546.029,544.828,546.029,555.322,546.029,565.816z M481.896,469.662
		c0-21.102,0-42.355,0-63.633c-10.688,0-21.242,0-31.771,0c0,21.301,0,42.391,0,63.633c10.695,0,21.301,0,31.904,0.154
		c0,10.617,0,21.234,0,32.023c-10.799,0-21.25,0-31.799,0c0,10.744,0,21.313,0,31.852c21.316,0,42.432,0,63.898,0
		c0-10.691,0-21.264,0-32.002c10.803,0,21.254,0,31.662,0c0-96.066,0-191.957,0-288.017c-42.684,0-85.131,0-127.762,0
		c0-42.47,0-84.771-0.006-127.07c0-0.146-0.072-0.307-0.152-0.434c-0.086-0.139-0.221-0.246-0.162-0.184
		c-63.964,0-127.741,0-191.692,0c0,10.617,0,21.068,0,31.869c-10.74,0-21.313,0-31.889,0c0,128.121,0,255.89,0,384.011
		c10.665,0,21.238,0,31.977,0c0,10.803,0,21.254,0,31.725c21.409,0,42.643,0,63.773,0c0-10.676,0-21.127,0-31.502
		c-0.289-0.139-0.428-0.264-0.567-0.264c-10.165-0.01-20.33-0.008-30.495-0.014c-0.146-0.002-0.307-0.07-0.434-0.15
		c-0.138-0.088-0.244-0.225-0.354-0.328c0-10.52,0-21.018,0.132-31.67c10.472,0,21.076,0,31.655,0c0-21.361,0-42.568,0-63.729
		c-10.65,0-21.088,0-31.655,0c0,21.373,0,42.627-0.132,63.883c-10.616,0-21.232,0-31.831,0c-0.738-18.338-0.432-155.555,0.343-160
		c10.496,0,20.992,0,31.62,0.154c0,21.1,0,42.355,0,63.633c10.688,0,21.242,0,31.772,0c0-21.303,0-42.391,0-63.633
		c-10.696,0-21.301,0-31.904-0.154c0-10.613,0-21.226,0-32c10.64,0,20.943,0,31.247-0.008c0.142,0,0.302-0.086,0.423-0.174
		c0.129-0.094,0.222-0.236,0.513-0.563c0-10.238,0-20.682,0-31.012c53.391,0,106.599,0,159.974,0c0,10.691,0,21.139,0,31.756
		c10.471,0,20.771-0.002,31.074,0.006c0.145,0,0.305,0.078,0.428,0.164c0.133,0.09,0.229,0.232,0.342,0.354
		c0,10.492,0,20.984-0.133,31.63c-10.471,0-21.076,0-31.654,0c0,21.361,0,42.566,0,63.727c10.65,0,21.088,0,31.654,0
		c0-21.371,0-42.627,0.133-63.881c10.615,0,21.232,0,31.83,0c0.738,18.332,0.432,155.555-0.342,160
		C503.021,469.816,492.525,469.816,481.896,469.662z M322.12,309.645c32.223,0,63.987,0,95.91,0c0-10.474,0-20.779-0.008-31.083
		c0-0.143-0.09-0.301-0.18-0.422c-0.096-0.127-0.238-0.217-0.164-0.152c-31.962,0-63.727,0-95.558,0
		C322.12,288.606,322.12,299.051,322.12,309.645z M417.939,469.977c-32.198,0-63.965,0-95.911,0c0,10.461-0.001,20.764,0.007,31.066
		c0,0.145,0.075,0.305,0.16,0.428c0.09,0.135,0.232,0.232,0.183,0.184c31.938,0,63.705,0,95.561,0
		C417.939,491.049,417.939,480.602,417.939,469.977z M322.192,405.902c0,10.857,0,21.301,0,31.914c10.457,0,20.753,0,31.048-0.006
		c0.146,0,0.308-0.07,0.434-0.15c0.138-0.086,0.242-0.225,0.192-0.178c0-10.611,0-21.053,0-31.58
		C343.262,405.902,332.821,405.902,322.192,405.902z M417.867,373.729c0-10.855,0-21.299,0-31.912
		c-10.457,0-20.752-0.002-31.048,0.006c-0.146,0-0.308,0.068-0.434,0.148c-0.137,0.088-0.241,0.227-0.194,0.182
		c0,10.607,0,21.049,0,31.576C396.794,373.729,407.236,373.729,417.867,373.729z M322.111,373.648c10.876,0,21.316,0,31.918,0
		c0-10.465,0.001-20.762-0.007-31.059c0-0.145-0.075-0.305-0.159-0.43c-0.09-0.133-0.232-0.23-0.175-0.176
		c-10.617,0-21.058,0-31.577,0C322.111,352.594,322.111,363.033,322.111,373.648z M417.941,405.992c-10.893,0-21.331,0-31.913,0
		c0,10.475-0.001,20.773,0.007,31.072c0.001,0.143,0.087,0.301,0.175,0.422c0.094,0.129,0.237,0.221,0.161,0.154
		c10.636,0,21.076,0,31.57,0C417.941,427.023,417.941,416.582,417.941,405.992z"/>
</g>
</svg>
