<?xml version="1.0" encoding="utf-8"?>
<!-- Generator: Adobe Illustrator 16.0.0, SVG Export Plug-In . SVG Version: 6.00 Build 0)  -->
<!DOCTYPE svg PUBLIC "-//W3C//DTD SVG 1.1//EN" "http://www.w3.org/Graphics/SVG/1.1/DTD/svg11.dtd">
<svg version="1.1" id="Layer_1" xmlns="http://www.w3.org/2000/svg" xmlns:xlink="http://www.w3.org/1999/xlink" x="0px" y="0px"
	 width="792px" height="612px" viewBox="0 0 792 612" enable-background="new 0 0 792 612" xml:space="preserve">
<g>
	<path fill-rule="evenodd" clip-rule="evenodd" fill="#FEFEFE" d="M167,84c96,0,192,0,288,0c0,10.615,0,21.23,0,32
		c10.646,0,20.953-0.001,31.259,0.008c0.142,0,0.3,0.092,0.42,0.182c0.126,0.095,0.216,0.239,0.511,0.581
		c0,10.225,0,20.668,0,31.278c10.636,0,21.084,0,31.878,0c0,10.734,0,21.305,0,32.036c10.795,0,21.243,0,31.774,0
		c0,128.024,0,255.879,0,383.915c-10.461,0-20.764-0.001-31.066,0.007c-0.145,0-0.306,0.074-0.43,0.158
		c-0.134,0.091-0.232,0.232-0.346,0.352c0,10.495,0,20.989,0,31.483c-117.333,0-234.667,0-352,0c0-10.617,0-21.233,0-32.021
		c-10.795,0-21.246,0-31.847,0c0-149.377,0-298.582,0-447.979c10.456,0,20.76,0.001,31.063-0.007c0.146,0,0.305-0.073,0.433-0.152
		c0.139-0.086,0.248-0.219,0.351-0.313C167,104.994,167,94.497,167,84z M199,436c0,10.667,0,21.333,0,32
		c-10.615,0-21.229,0-31.827,0c-0.671,16.229-0.417,59.808,0.392,64.182c10.412,0,20.857,0,31.468,0c0,10.628,0,21.076,0,31.67
		c96.035,0,191.898,0,288.109,0c0-10.713,0-21.282,0-32.012c10.796,0,21.244,0,31.681,0c0.647-14.74,0.401-59.655-0.341-63.84
		c-10.494,0-20.988,0-31.482,0c0-10.667,0-21.333,0-32c10.617,0,21.233,0,31.832,0c0.754-18.867,0.438-187.522-0.374-192.167
		c-42.411,0-84.852,0-127.458,0c0-42.463,0-84.76-0.007-127.056c0-0.146-0.073-0.307-0.157-0.431
		c-0.09-0.134-0.232-0.232-0.352-0.347c-31.823,0-63.646,0-95.469,0c-31.945,0-63.892,0-96.016,0
		c0,10.625,0.001,20.931-0.007,31.236c0,0.144-0.081,0.304-0.166,0.426c-0.093,0.131-0.235,0.227-0.555,0.521
		c-10.248,0-20.696,0-31.133,0c-0.787,22.731-0.446,283.105,0.371,287.816C178.007,436,188.504,436,199,436z"/>
	<path fill-rule="evenodd" clip-rule="evenodd" fill="#FEFEFE" d="M326.5,532c-10.333,0-20.666,0-30.999,0
		c-0.684-4.057-0.907-52.258-0.287-63.881c10.44,0,20.893,0,31.697,0c0-10.741,0-21.315,0-32.06c10.803,0,21.255,0,31.897,0
		c0-10.62,0-21.068,0-31.3c0.299-0.339,0.391-0.482,0.52-0.576c0.12-0.089,0.279-0.176,0.422-0.176
		c10.309-0.009,20.618-0.008,31.088-0.008c0,21.292,0,42.41,0,63.881c-10.431,0-21.004,0-31.749,0c0,10.803,0,21.255,0,32.06
		c-10.741,0-21.315,0-32.235,0c0,10.803,0.001,21.255-0.015,31.706C326.839,531.765,326.618,531.882,326.5,532z"/>
	<path fill-rule="evenodd" clip-rule="evenodd" fill="#FEFEFE" d="M199,436c0-10.584,0-21.168,0-32c10.832,0,21.416,0,32,0
		c0,10.584,0,21.168,0,32C220.168,436,209.584,436,199,436z"/>
	<path fill-rule="evenodd" clip-rule="evenodd" fill="#FEFEFE" d="M454.856,403.856c-10.453,0-21.049,0-31.75,0
		c0-10.571,0-21.001,0-31.644c10.512,0,21.059,0,31.75,0C454.856,382.808,454.856,393.403,454.856,403.856z"/>
	<path fill-rule="evenodd" clip-rule="evenodd" fill="#FEFEFE" d="M231.144,500.144c10.453,0,21.049,0,31.75,0
		c0,10.571,0,21.001,0,31.644c-10.512,0-21.059,0-31.75,0C231.144,521.192,231.144,510.597,231.144,500.144z"/>
	<path fill-rule="evenodd" clip-rule="evenodd" fill="#FEFEFE" d="M454.856,500.144c0,10.453,0,21.049,0,31.75
		c-10.571,0-21.001,0-31.644,0c0-10.512,0-21.059,0-31.75C433.808,500.144,444.403,500.144,454.856,500.144z"/>
	<path fill-rule="evenodd" clip-rule="evenodd" fill="#FEFEFE" d="M231.144,403.856c0-10.453,0-21.049,0-31.75
		c10.571,0,21.001,0,31.644,0c0,10.512,0,21.059,0,31.75C252.192,403.856,241.597,403.856,231.144,403.856z"/>
	<path fill-rule="evenodd" clip-rule="evenodd" fill="#FEFEFE" d="M487,468c0,10.584,0,21.168,0,32c-10.832,0-21.416,0-32,0
		c0-10.584,0-21.168,0-32C465.832,468,476.416,468,487,468z"/>
	<path fill-rule="evenodd" clip-rule="evenodd" fill="#FEFEFE" d="M231,500c-10.584,0-21.168,0-32,0c0-10.832,0-21.416,0-32
		c10.584,0,21.168,0,32,0C231,478.832,231,489.416,231,500z"/>
	<path fill-rule="evenodd" clip-rule="evenodd" fill="#FEFEFE" d="M455,404c10.584,0,21.168,0,32,0c0,10.832,0,21.416,0,32
		c-10.584,0-21.168,0-32,0C455,425.168,455,414.584,455,404z"/>
</g>
</svg>
