<?xml version="1.0" encoding="utf-8"?>
<!-- Generator: Adobe Illustrator 16.0.0, SVG Export Plug-In . SVG Version: 6.00 Build 0)  -->
<!DOCTYPE svg PUBLIC "-//W3C//DTD SVG 1.1//EN" "http://www.w3.org/Graphics/SVG/1.1/DTD/svg11.dtd">
<svg version="1.1" id="Layer_1" xmlns="http://www.w3.org/2000/svg" xmlns:xlink="http://www.w3.org/1999/xlink" x="0px" y="0px"
	 width="792px" height="612px" viewBox="0 0 792 612" enable-background="new 0 0 792 612" xml:space="preserve">
<g>
	<path fill-rule="evenodd" clip-rule="evenodd" fill="#FEFEFE" d="M499,580c-117.333,0-234.667,0-352,0c0-10.617,0-21.233,0-32.021
		c-10.795,0-21.246,0-31.847,0c0-149.377,0-298.582,0-447.979c10.456,0,20.76,0.001,31.063-0.007c0.146,0,0.305-0.073,0.433-0.152
		c0.139-0.086,0.248-0.219,0.351-0.313c0-10.533,0-21.03,0-31.527c96,0,192,0,288,0c0,10.615,0,21.23,0,32
		c10.646,0,20.953-0.001,31.259,0.008c0.142,0,0.3,0.092,0.42,0.182c0.126,0.095,0.216,0.239,0.511,0.581
		c0,10.225,0,20.668,0,31.278c10.636,0,21.084,0,31.878,0c0,10.734,0,21.305,0,32.036c10.795,0,21.243,0,31.774,0
		c0,128.024,0,255.879,0,383.915c-10.461,0-20.764-0.001-31.066,0.007c-0.145,0-0.306,0.074-0.43,0.158
		c-0.134,0.091-0.232,0.232-0.346,0.352C499,559.012,499,569.506,499,580z M147.176,131.97c0,128.314,0,256.099,0,384.059
		c10.626,0,21.079,0,31.883,0c0,10.744,0,21.318,0,31.84c96.137,0,191.921,0,288.059,0c0-10.7,0-21.273,0-32.015
		c10.805,0,21.258,0,31.698,0c0.791-17.253,0.454-283.585-0.393-288.044c-42.411,0-84.858,0-127.48,0c0-42.642,0-85.094,0-127.59
		c-64.079,0-127.981,0-192.06,0c0,10.672,0,21.125,0,31.75C168.256,131.97,157.804,131.97,147.176,131.97z"/>
	<path fill-rule="evenodd" clip-rule="evenodd" fill="#FEFEFE" d="M211.176,452c20.989,0,42.154,0,63.319,0
		c0.703-4.124,0.956-83.115,0.298-95.873c-21.106,0-42.225,0-63.567,0c0-10.741,0-21.311,0-32.004c31.811,0,63.593,0,95.575,0
		c0,53.211,0,106.444,0,159.777c-31.884,0-63.666,0-95.625,0C211.176,473.237,211.176,462.618,211.176,452z"/>
	<path fill-rule="evenodd" clip-rule="evenodd" fill="#FEFEFE" d="M371,356.174c0,10.323,0,20.821,0,31.348
		c0.106,0.1,0.214,0.234,0.353,0.32c0.127,0.08,0.287,0.152,0.433,0.152C392.754,388,413.723,388,434.846,388
		c0,31.97,0,63.749,0,95.765c-31.771,0-63.668,0-95.705,0c0-10.433,0-20.882,0-31.681c21.157,0,42.392,0,63.741,0
		c0-10.797,0-21.246,0-32.045c-21.225,0-42.459,0-63.786,0c0-21.462,0-42.576,0-63.865C349.766,356.174,360.383,356.174,371,356.174
		z"/>
	<path fill-rule="evenodd" clip-rule="evenodd" fill="#FEFEFE" d="M371.154,355.868c0-10.472,0-21.076,0-31.772
		c21.242,0,42.331,0,63.633,0c0,10.53,0,21.084,0,31.772C413.51,355.868,392.255,355.868,371.154,355.868z"/>
	<path fill-rule="evenodd" clip-rule="evenodd" fill="#FEFEFE" d="M210.856,451.856c-10.453,0-21.049,0-31.75,0
		c0-10.571,0-21.001,0-31.644c10.512,0,21.059,0,31.75,0C210.856,430.808,210.856,441.403,210.856,451.856z"/>
</g>
</svg>
