<?xml version="1.0" encoding="utf-8"?>
<!-- Generator: Adobe Illustrator 16.0.0, SVG Export Plug-In . SVG Version: 6.00 Build 0)  -->
<!DOCTYPE svg PUBLIC "-//W3C//DTD SVG 1.1//EN" "http://www.w3.org/Graphics/SVG/1.1/DTD/svg11.dtd">
<svg version="1.1" id="Layer_1" xmlns="http://www.w3.org/2000/svg" xmlns:xlink="http://www.w3.org/1999/xlink" x="0px" y="0px"
	 width="792px" height="612px" viewBox="0 0 792 612" enable-background="new 0 0 792 612" xml:space="preserve">
<g>
	<path fill-rule="evenodd" clip-rule="evenodd" fill="#FEFEFE" d="M175.503,50.994c96,0,192,0,288,0c0,10.615,0,21.23,0,32
		c10.646,0,20.953-0.001,31.259,0.008c0.142,0,0.3,0.092,0.42,0.182c0.126,0.095,0.216,0.239,0.511,0.581
		c0,10.225,0,20.668,0,31.278c10.636,0,21.084,0,31.878,0c0,10.734,0,21.305,0,32.036c10.795,0,21.243,0,31.774,0
		c0,128.024,0,255.878,0,383.916c-10.461,0-20.764-0.002-31.066,0.006c-0.145,0-0.306,0.074-0.43,0.158
		c-0.134,0.092-0.232,0.232-0.346,0.352c0,10.496,0,20.99,0,31.484c-117.333,0-234.667,0-352,0c0-10.617,0-21.234,0-32.021
		c-10.795,0-21.246,0-31.847,0c0-149.377,0-298.582,0-447.979c10.456,0,20.76,0.001,31.063-0.007c0.146,0,0.305-0.073,0.433-0.152
		c0.139-0.086,0.248-0.219,0.351-0.313C175.503,71.988,175.503,61.491,175.503,50.994z M207.533,115.17c-10.982,0-21.435,0-31.928,0
		c0,127.96,0,255.744,0,383.88c10.67,0,21.245,0,31.986,0c0,10.805,0,21.258,0,31.707c96.079,0,191.98,0,288.059,0
		c0-10.686,0-21.139,0-31.764c10.485,0,20.794,0,31.104-0.008c0.142,0,0.301-0.088,0.422-0.176c0.129-0.094,0.221-0.238,0.137-0.143
		c0-95.996,0-191.777,0-287.733c-42.642,0-85.093,0-127.896,0c0-42.744,0-85.314,0-127.795c-64.137,0-127.922,0-191.882,0
		C207.533,93.737,207.533,104.189,207.533,115.17z"/>
	<path fill-rule="evenodd" clip-rule="evenodd" fill="#FEFEFE" d="M239.503,434.994c-10.493,0-20.986,0-31.479,0
		c-0.756-4.213-1.005-48.318-0.346-64c10.597,0,21.21,0,31.824,0C239.503,392.326,239.503,413.66,239.503,434.994z"/>
	<path fill-rule="evenodd" clip-rule="evenodd" fill="#FEFEFE" d="M463.503,434.994c0-21.334,0-42.668,0-64
		c10.493,0,20.986,0,31.479,0c0.756,4.213,1.004,48.316,0.346,64C484.73,434.994,474.117,434.994,463.503,434.994z"/>
	<path fill-rule="evenodd" clip-rule="evenodd" fill="#FEFEFE" d="M239.646,370.85c0-10.453,0-21.049,0-31.75
		c10.571,0,21.001,0,31.644,0c0,10.512,0,21.059,0,31.75C260.695,370.85,250.1,370.85,239.646,370.85z"/>
	<path fill-rule="evenodd" clip-rule="evenodd" fill="#FEFEFE" d="M431.503,434.994c10.667,0,21.333,0,32,0
		c0,10.49,0,20.98,0,31.471c-0.111,0.121-0.207,0.264-0.338,0.355c-0.122,0.086-0.282,0.166-0.426,0.166
		c-10.302,0.008-20.603,0.008-31.236,0.008C431.503,456.219,431.503,445.605,431.503,434.994z"/>
	<path fill-rule="evenodd" clip-rule="evenodd" fill="#FEFEFE" d="M271.646,434.85c0-10.453,0-21.049,0-31.75
		c10.571,0,21.001,0,31.644,0c0,10.512,0,21.059,0,31.75C292.695,434.85,282.1,434.85,271.646,434.85z"/>
	<path fill-rule="evenodd" clip-rule="evenodd" fill="#FEFEFE" d="M431.359,434.85c-10.453,0-21.049,0-31.75,0
		c0-10.57,0-21,0-31.643c10.512,0,21.059,0,31.75,0C431.359,413.801,431.359,424.396,431.359,434.85z"/>
	<path fill-rule="evenodd" clip-rule="evenodd" fill="#FEFEFE" d="M335.666,403.08c10.629,0,21.07,0,31.674,0
		c0,10.527,0,20.969,0,31.58c0.05-0.047-0.055,0.092-0.192,0.178c-0.126,0.08-0.287,0.15-0.434,0.15
		c-10.295,0.006-20.591,0.006-31.048,0.006C335.666,424.381,335.666,413.938,335.666,403.08z"/>
	<path fill-rule="evenodd" clip-rule="evenodd" fill="#FEFEFE" d="M463.359,370.85c-10.453,0-21.049,0-31.75,0
		c0-10.57,0-21,0-31.643c10.512,0,21.059,0,31.75,0C463.359,349.801,463.359,360.396,463.359,370.85z"/>
	<path fill-rule="evenodd" clip-rule="evenodd" fill="#FEFEFE" d="M239.503,434.994c10.667,0,21.333,0,32,0
		c0,10.49,0,20.98,0,31.471c-0.111,0.121-0.207,0.264-0.338,0.355c-0.122,0.086-0.282,0.166-0.426,0.166
		c-10.302,0.008-20.603,0.008-31.236,0.008C239.503,456.219,239.503,445.605,239.503,434.994z"/>
</g>
</svg>
